#N canvas 950 1072 960 1011 12;
#X msg 47 37 read -c meuScript.lua;
#X msg 58 62 minhaMensagem;
#X msg 39 138 read -c meuScript.lua;
#X msg 43 240 read -c meuScript.lua;
#X obj 43 289 ofelia define;
#X msg 51 265 10 20 30;
#X obj 47 163 bng 20 250 50 0 empty empty empty 0 -10 0 12 #fcfcfc #000000 #000000;
#X obj 39 188 ofelia define;
#X obj 47 87 ofelia define;
#X msg 40 331 read -c meuScript.lua;
#X obj 40 381 dac~;
#X obj 40 356 ofelia define -s11;
#X connect 0 0 8 0;
#X connect 1 0 8 0;
#X connect 2 0 7 0;
#X connect 3 0 4 0;
#X connect 5 0 4 0;
#X connect 6 0 7 0;
#X connect 9 0 11 0;
#X connect 11 0 10 0;
#X connect 11 0 10 1;
